<svg width="43" height="44" viewBox="0 0 43 44" fill="none" xmlns="http://www.w3.org/2000/svg">
<g clip-path="url(#clip0_2035_1331)">
<path d="M0.90156 21.8476C0.90057 25.4252 1.83536 28.9185 3.61286 31.9975L0.731567 42.5175L11.4975 39.6947C14.4753 41.3157 17.8116 42.1651 21.202 42.1653H21.2109C32.4032 42.1653 41.5139 33.0579 41.5187 21.8636C41.5209 16.4392 39.4103 11.3384 35.5757 7.5009C31.7418 3.66369 26.6429 1.54935 21.2101 1.54688C10.0165 1.54688 0.906346 10.6539 0.901725 21.8476" fill="url(#paint0_linear_2035_1331)"/>
<path d="M0.176594 21.8414C0.175439 25.5477 1.14374 29.1659 2.98461 32.3552L0 43.2524L11.152 40.3283C14.2247 42.0037 17.6843 42.887 21.2047 42.8883H21.2137C32.8076 42.8883 42.2456 33.4532 42.2506 21.8582C42.2525 16.2389 40.0661 10.9548 36.0945 6.97976C32.1225 3.00524 26.8412 0.814811 21.2137 0.8125C9.61794 0.8125 0.181215 10.2463 0.176594 21.8414ZM6.81802 31.8059L6.40162 31.1449C4.65119 28.3617 3.72729 25.1454 3.72861 21.8427C3.73224 12.2051 11.5757 4.36419 21.2203 4.36419C25.891 4.36617 30.2805 6.1869 33.5819 9.49037C36.8833 12.7942 38.6999 17.1859 38.6987 21.8569C38.6944 31.4945 30.8508 39.3364 21.2137 39.3364H21.2068C18.0689 39.3348 14.9914 38.4921 12.3075 36.8996L11.6687 36.5208L5.05092 38.2559L6.81802 31.8059Z" fill="url(#paint1_linear_2035_1331)"/>
<path d="M15.9559 13.0494C15.5621 12.1741 15.1477 12.1565 14.7732 12.1411C14.4666 12.1279 14.116 12.1289 13.7658 12.1289C13.4153 12.1289 12.8457 12.2608 12.3643 12.7864C11.8824 13.3126 10.5244 14.5841 10.5244 17.1701C10.5244 19.7561 12.408 22.2555 12.6706 22.6066C12.9335 22.957 16.307 28.4337 21.6497 30.5406C26.09 32.2915 26.9936 31.9433 27.9572 31.8555C28.9211 31.768 31.0673 30.5843 31.5051 29.3569C31.9433 28.1297 31.9433 27.0777 31.8119 26.8579C31.6806 26.6389 31.33 26.5073 30.8044 26.2446C30.2787 25.9818 27.6943 24.71 27.2126 24.5346C26.7306 24.3593 26.3803 24.2718 26.0297 24.7982C25.6792 25.3236 24.6726 26.5073 24.3658 26.8579C24.0593 27.2092 23.7525 27.253 23.227 26.9901C22.701 26.7263 21.0082 26.172 18.9998 24.3814C17.4372 22.9881 16.3822 21.2676 16.0756 20.7413C15.7689 20.2158 16.0427 19.9309 16.3063 19.669C16.5425 19.4335 16.8321 19.0552 17.0952 18.7484C17.3573 18.4414 17.4448 18.2224 17.62 17.8719C17.7955 17.521 17.7077 17.214 17.5765 16.9511C17.4448 16.6882 16.4233 14.0886 15.9559 13.0494Z" fill="white"/>
</g>
<defs>
<linearGradient id="paint0_linear_2035_1331" x1="2040.09" y1="4098.61" x2="2040.09" y2="1.54688" gradientUnits="userSpaceOnUse">
<stop stop-color="#1FAF38"/>
<stop offset="1" stop-color="#60D669"/>
</linearGradient>
<linearGradient id="paint1_linear_2035_1331" x1="2112.53" y1="4244.8" x2="2112.53" y2="0.8125" gradientUnits="userSpaceOnUse">
<stop stop-color="#F9F9F9"/>
<stop offset="1" stop-color="white"/>
</linearGradient>
<clipPath id="clip0_2035_1331">
<rect width="42.2506" height="42.5806" fill="white" transform="translate(0 0.8125)"/>
</clipPath>
</defs>
</svg>
